<svg width="58" height="52" viewBox="0 0 58 52" fill="none" xmlns="http://www.w3.org/2000/svg">
<path fill-rule="evenodd" clip-rule="evenodd" d="M15.5204 16.7682L21.8843 10.4043L31.2182 19.7381L40.9762 9.98008L47.3402 16.344L37.5821 26.1021L47.3402 35.8601L40.9762 42.2241L31.2182 32.4661L21.8844 41.7999L15.5204 35.4359L24.8542 26.1021L15.5204 16.7682Z" fill="#FF3146"/>
<path fill-rule="evenodd" clip-rule="evenodd" d="M9.33383 17.0983L15.6978 10.7343L25.0317 20.0682L34.7897 10.3102L41.1537 16.6741L31.3956 26.4322L41.1536 36.1902L34.7897 42.5541L25.0317 32.7961L15.6978 42.13L9.33387 35.766L18.6677 26.4322L9.33383 17.0983Z" fill="#00FDE8"/>
<path fill-rule="evenodd" clip-rule="evenodd" d="M12.3446 16.9328L18.7085 10.5688L28.0424 19.9027L37.8005 10.1446L44.1644 16.5086L34.4064 26.2666L44.1644 36.0247L37.8004 42.3886L28.0424 32.6306L18.7086 41.9644L12.3446 35.6005L21.6784 26.2666L12.3446 16.9328Z" fill="white"/>
</svg>
