<svg width="45" height="46" viewBox="0 0 45 46" fill="none" xmlns="http://www.w3.org/2000/svg">
<path fill-rule="evenodd" clip-rule="evenodd" d="M27.9945 23.2497L32.4656 27.7208L32.8171 27.3693L33.5242 26.6622L33.8778 26.3087L32.9571 25.388L31.8964 24.3273L31.5429 23.9738L30.8358 23.2667L31.5429 22.5596L31.8964 22.206L32.9571 21.1454L33.8778 20.2247L33.5242 19.8711L32.8171 19.164L32.4636 18.8105L31.5429 19.7311L30.4822 20.7918L30.1287 21.1454L29.4216 21.8525L29.4066 21.8375L27.9945 23.2497ZM21.9551 29.2891L26.4262 33.7602L26.0804 34.106L25.3733 34.8131L25.0197 35.1667L24.0991 34.246L23.0384 33.1854L22.6848 32.8318L21.9777 32.1247L21.2706 32.8318L20.9171 33.1854L19.8564 34.246L19.0833 35.0191L18.7298 34.6656L18.0226 33.9585L17.6691 33.6049L18.4422 32.8318L19.5029 31.7712L19.8564 31.4176L20.5635 30.7105L20.5486 30.6956L21.9551 29.2891ZM15.9425 23.2765L14.536 24.683L14.5339 24.6809L13.8268 25.388L13.4732 25.7415L12.4126 26.8022L11.6395 27.5753L11.2859 27.2218L10.5788 26.5147L10.2253 26.1611L10.9984 25.388L12.059 24.3273L12.4126 23.9738L13.1197 23.2667L12.4126 22.5596L12.059 22.206L10.9984 21.1454L10.2252 20.3722L10.5788 20.0187L11.2859 19.3116L11.6318 18.9657L15.9425 23.2765ZM23.3941 15.8249L21.9819 17.2371L17.6712 12.9263L18.0226 12.5748L18.7297 11.8677L19.0833 11.5142L19.8564 12.2873L20.9171 13.348L21.2706 13.7015L21.9777 14.4086L22.6848 13.7015L23.0384 13.348L24.0991 12.2873L25.0197 11.3666L25.3733 11.7202L26.0804 12.4273L26.4339 12.7809L25.5133 13.7015L24.4526 14.7622L24.0991 15.1157L23.392 15.8228L23.3941 15.8249ZM38.5476 12.7265L38.9011 13.08L39.6082 13.7871L39.9618 14.1407L42.2967 11.8058L43.0038 11.0987L43.3573 10.7451L44.0644 10.038L44.418 9.68448L44.0644 9.33093L43.3573 8.62382L43.0038 8.27027L42.2967 7.56316L41.4964 6.76287L41.1428 7.11642L40.4357 7.82353L40.0821 8.17708L40.5289 8.62382L40.8824 8.97738L41.5895 9.68448L40.8824 10.3916L40.5289 10.7451L39.4682 11.8058L38.5476 12.7265ZM37.0673 5.16227L37.4209 4.80872L38.128 4.10161L38.4815 3.74806L37.6812 2.94776L36.9741 2.24065L36.6206 1.8871L35.9135 1.17999L35.5599 0.826441L35.2064 1.17999L34.4993 1.8871L34.1457 2.24065L33.4386 2.94776L31.1037 5.28265L31.4573 5.6362L32.1644 6.34331L32.5179 6.69686L33.4386 5.77619L34.4993 4.71553L34.8528 4.36197L35.5599 3.65487L36.267 4.36197L36.6206 4.71553L37.0673 5.16227ZM39.9617 32.3926L39.6082 32.7462L38.9011 33.4533L38.5475 33.8068L39.4682 34.7275L40.5288 35.7881L40.8824 36.1417L41.5895 36.8488L40.8824 37.5559L40.5288 37.9095L40.0821 38.3562L40.4356 38.7098L41.1427 39.4169L41.4963 39.7704L42.2966 38.9701L43.0037 38.263L43.3572 37.9095L44.0643 37.2023L44.4179 36.8488L44.0643 36.4952L43.3572 35.7881L43.0037 35.4346L42.2966 34.7275L39.9617 32.3926ZM38.4815 42.7852L38.1279 42.4317L37.4208 41.7246L37.0673 41.371L36.6205 41.8177L36.267 42.1713L35.5599 42.8784L34.8527 42.1713L34.4992 41.8177L33.4385 40.7571L32.5179 39.8364L32.1643 40.19L31.4572 40.8971L31.1037 41.2506L33.4385 43.5855L34.1456 44.2926L34.4992 44.6462L35.2063 45.3533L35.5599 45.7068L35.9134 45.3533L36.6205 44.6462L36.9741 44.2926L37.6812 43.5855L38.4815 42.7852ZM13.2944 40.808L12.9409 40.4545L12.2338 39.7474L11.8802 39.3938L11.1071 40.1669L10.0465 41.2276L9.69291 41.5811L8.9858 42.2882L8.27869 41.5811L7.92514 41.2276L7.4784 40.7808L7.12484 41.1344L6.41773 41.8415L6.06418 42.195L6.86448 42.9953L7.57158 43.7024L7.92514 44.056L8.63224 44.7631L8.9858 45.1167L9.33935 44.7631L10.0465 44.056L10.4 43.7024L11.1071 42.9953L13.2944 40.808ZM3.04937 39.1802L3.40293 38.8267L4.11003 38.1196L4.46359 37.766L4.01684 37.3193L3.66329 36.9657L2.95618 36.2586L3.66329 35.5515L4.01684 35.198L5.0775 34.1373L5.85061 33.3642L5.49706 33.0106L4.78995 32.3035L4.4364 31.95L2.24908 34.1373L1.54197 34.8444L1.18842 35.198L0.481309 35.9051L0.127756 36.2586L0.481309 36.6122L1.18842 37.3193L1.54197 37.6728L2.24908 38.3799L3.04937 39.1802ZM4.43634 14.5833L4.7899 14.2298L5.497 13.5227L5.85056 13.1691L5.07743 12.396L4.01677 11.3353L3.66322 10.9818L2.95611 10.2747L3.66322 9.56756L4.01677 9.214L4.46351 8.76726L4.10996 8.4137L3.40285 7.7066L3.0493 7.35304L2.249 8.15334L1.54189 8.86045L1.18834 9.214L0.481235 9.92111L0.127681 10.2747L0.481235 10.6282L1.18834 11.3353L1.54189 11.6889L2.249 12.396L4.43634 14.5833ZM6.06411 4.33824L6.41766 4.69179L7.12477 5.3989L7.47832 5.75245L7.92507 5.30571L8.27862 4.95215L8.98573 4.24505L9.69283 4.95215L10.0464 5.30571L11.107 6.36637L11.8802 7.1395L12.2337 6.78594L12.9408 6.07884L13.2944 5.72528L11.107 3.53794L10.3999 2.83083L10.0464 2.47728L9.33928 1.77017L8.98573 1.41662L8.63217 1.77017L7.92507 2.47728L7.57151 2.83083L6.86441 3.53794L6.06411 4.33824Z" fill="white"/>
</svg>
