<svg width="295" height="57" viewBox="0 0 295 57" fill="none" xmlns="http://www.w3.org/2000/svg">
<g opacity="0.75">
<rect x="52" y="12.9995" width="32" height="32" stroke="white" stroke-width="4" stroke-linecap="square" stroke-dasharray="45 45"/>
<path fill-rule="evenodd" clip-rule="evenodd" d="M69.8002 21.1997H66.2002V27.1993H60.2002V30.7993H66.2002V36.7997H69.8002V30.7993H75.8002V27.1993H69.8002V21.1997Z" fill="white"/>
<mask id="path-3-inside-1_611_54" fill="white">
<path fill-rule="evenodd" clip-rule="evenodd" d="M99.5779 18.3327L106.635 11.2757L116.985 21.6261L127.806 10.8054L134.863 17.8624L124.042 28.6832L134.863 39.5038L127.806 46.5609L116.985 35.7402L106.635 46.0906L99.578 39.0335L109.928 28.6832L99.5779 18.3327Z"/>
</mask>
<path fill-rule="evenodd" clip-rule="evenodd" d="M99.5779 18.3327L106.635 11.2757L116.985 21.6261L127.806 10.8054L134.863 17.8624L124.042 28.6832L134.863 39.5038L127.806 46.5609L116.985 35.7402L106.635 46.0906L99.578 39.0335L109.928 28.6832L99.5779 18.3327Z" fill="#282C34"/>
<path d="M106.635 11.2757L108.049 9.86147L106.635 8.44726L105.221 9.86147L106.635 11.2757ZM99.5779 18.3327L98.1637 16.9185L96.7495 18.3327L98.1637 19.7469L99.5779 18.3327ZM116.985 21.6261L115.571 23.0403L116.985 24.4546L118.4 23.0403L116.985 21.6261ZM127.806 10.8054L129.22 9.39118L127.806 7.97697L126.392 9.39118L127.806 10.8054ZM134.863 17.8624L136.277 19.2766L137.692 17.8624L136.277 16.4482L134.863 17.8624ZM124.042 28.6832L122.628 27.2689L121.214 28.6832L122.628 30.0974L124.042 28.6832ZM134.863 39.5038L136.277 40.918L137.692 39.5038L136.277 38.0896L134.863 39.5038ZM127.806 46.5609L126.392 47.9751L127.806 49.3893L129.22 47.9751L127.806 46.5609ZM116.985 35.7402L118.4 34.326L116.985 32.9118L115.571 34.326L116.985 35.7402ZM106.635 46.0906L105.221 47.5048L106.635 48.919L108.049 47.5048L106.635 46.0906ZM99.578 39.0335L98.1638 37.6193L96.7496 39.0335L98.1638 40.4478L99.578 39.0335ZM109.928 28.6832L111.343 30.0974L112.757 28.6832L111.343 27.2689L109.928 28.6832ZM105.221 9.86147L98.1637 16.9185L100.992 19.7469L108.049 12.6899L105.221 9.86147ZM118.4 20.2119L108.049 9.86147L105.221 12.6899L115.571 23.0403L118.4 20.2119ZM126.392 9.39118L115.571 20.2119L118.4 23.0403L129.22 12.2196L126.392 9.39118ZM136.277 16.4482L129.22 9.39118L126.392 12.2196L133.449 19.2766L136.277 16.4482ZM125.457 30.0974L136.277 19.2766L133.449 16.4482L122.628 27.2689L125.457 30.0974ZM136.277 38.0896L125.457 27.2689L122.628 30.0974L133.449 40.918L136.277 38.0896ZM129.22 47.9751L136.277 40.918L133.449 38.0896L126.392 45.1467L129.22 47.9751ZM115.571 37.1544L126.392 47.9751L129.22 45.1467L118.4 34.326L115.571 37.1544ZM108.049 47.5048L118.4 37.1544L115.571 34.326L105.221 44.6764L108.049 47.5048ZM98.1638 40.4478L105.221 47.5048L108.049 44.6764L100.992 37.6193L98.1638 40.4478ZM108.514 27.269L98.1638 37.6193L100.992 40.4478L111.343 30.0974L108.514 27.269ZM98.1637 19.7469L108.514 30.0974L111.343 27.2689L100.992 16.9185L98.1637 19.7469Z" fill="white" mask="url(#path-3-inside-1_611_54)"/>
<rect x="2" y="12.9995" width="32" height="32" stroke="white" stroke-width="4" stroke-linecap="square" stroke-dasharray="45 45"/>
<rect x="12" y="22.9995" width="12" height="12" fill="white"/>
<circle cx="167" cy="29.9995" r="16.5" stroke="white" stroke-width="3"/>
<path d="M235.387 16.75L218.5 46L201.613 16.75L235.387 16.75Z" stroke="white" stroke-width="3"/>
<rect x="254.121" y="31.2129" width="27" height="27" transform="rotate(-45 254.121 31.2129)" stroke="white" stroke-width="3"/>
<rect width="12" height="12" transform="matrix(0.707107 -0.707107 -0.707107 -0.707107 273.485 39.9702)" fill="white"/>
</g>
</svg>
