<svg width="71" height="72" viewBox="0 0 71 72" fill="none" xmlns="http://www.w3.org/2000/svg">
<mask id="path-1-inside-1_613_107" fill="white">
<path fill-rule="evenodd" clip-rule="evenodd" d="M13.0862 23.2747L21.9442 14.4166L34.9362 27.4086L48.5184 13.8264L57.3765 22.6845L43.7943 36.2667L57.3764 49.8488L48.5184 58.7068L34.9362 45.1247L21.9443 58.1167L13.0863 49.2586L26.0782 36.2667L13.0862 23.2747Z"/>
</mask>
<path d="M21.9442 14.4166L24.0655 12.2953L21.9442 10.174L19.8229 12.2953L21.9442 14.4166ZM13.0862 23.2747L10.9649 21.1533L8.84354 23.2747L10.9649 25.396L13.0862 23.2747ZM34.9362 27.4086L32.8149 29.53L34.9362 31.6513L37.0576 29.53L34.9362 27.4086ZM48.5184 13.8264L50.6397 11.7051L48.5184 9.5838L46.3971 11.7051L48.5184 13.8264ZM57.3765 22.6845L59.4978 24.8058L61.6191 22.6845L59.4978 20.5632L57.3765 22.6845ZM43.7943 36.2667L41.673 34.1454L39.5516 36.2667L41.673 38.388L43.7943 36.2667ZM57.3764 49.8488L59.4977 51.9701L61.619 49.8488L59.4977 47.7275L57.3764 49.8488ZM48.5184 58.7068L46.397 60.8282L48.5184 62.9495L50.6397 60.8282L48.5184 58.7068ZM34.9362 45.1247L37.0576 43.0034L34.9362 40.8821L32.8149 43.0034L34.9362 45.1247ZM21.9443 58.1167L19.823 60.238L21.9443 62.3593L24.0656 60.238L21.9443 58.1167ZM13.0863 49.2586L10.9649 47.1373L8.84361 49.2586L10.9649 51.3799L13.0863 49.2586ZM26.0782 36.2667L28.1995 38.388L30.3208 36.2667L28.1995 34.1454L26.0782 36.2667ZM19.8229 12.2953L10.9649 21.1533L15.2075 25.396L24.0655 16.5379L19.8229 12.2953ZM37.0576 25.2873L24.0655 12.2953L19.8229 16.5379L32.8149 29.53L37.0576 25.2873ZM46.3971 11.7051L32.8149 25.2873L37.0576 29.53L50.6397 15.9478L46.3971 11.7051ZM59.4978 20.5632L50.6397 11.7051L46.3971 15.9478L55.2551 24.8058L59.4978 20.5632ZM45.9156 38.388L59.4978 24.8058L55.2551 20.5632L41.673 34.1454L45.9156 38.388ZM59.4977 47.7275L45.9156 34.1454L41.673 38.388L55.2551 51.9701L59.4977 47.7275ZM50.6397 60.8282L59.4977 51.9701L55.2551 47.7275L46.397 56.5855L50.6397 60.8282ZM32.8149 47.246L46.397 60.8282L50.6397 56.5855L37.0576 43.0034L32.8149 47.246ZM24.0656 60.238L37.0576 47.246L32.8149 43.0034L19.823 55.9953L24.0656 60.238ZM10.9649 51.3799L19.823 60.238L24.0656 55.9953L15.2076 47.1373L10.9649 51.3799ZM23.9569 34.1454L10.9649 47.1373L15.2076 51.3799L28.1995 38.388L23.9569 34.1454ZM10.9649 25.396L23.9569 38.388L28.1995 34.1454L15.2075 21.1533L10.9649 25.396Z" fill="white" mask="url(#path-1-inside-1_613_107)"/>
</svg>
