<svg width="45" height="46" viewBox="0 0 45 46" fill="none" xmlns="http://www.w3.org/2000/svg">
<mask id="path-1-inside-1_613_108" fill="white">
<path fill-rule="evenodd" clip-rule="evenodd" d="M0.0861774 10.2747L8.94422 1.41662L21.9362 14.4086L35.5184 0.826441L44.3765 9.68448L30.7943 23.2667L44.3764 36.8488L35.5184 45.7068L21.9362 32.1247L8.94429 45.1167L0.0862516 36.2586L13.0782 23.2667L0.0861774 10.2747Z"/>
</mask>
<path d="M8.94422 1.41662L11.0655 -0.704702L8.94422 -2.82602L6.8229 -0.704701L8.94422 1.41662ZM0.0861774 10.2747L-2.03514 8.15334L-4.15646 10.2747L-2.03514 12.396L0.0861774 10.2747ZM21.9362 14.4086L19.8149 16.53L21.9362 18.6513L24.0576 16.53L21.9362 14.4086ZM35.5184 0.826441L37.6397 -1.29488L35.5184 -3.4162L33.3971 -1.29488L35.5184 0.826441ZM44.3765 9.68448L46.4978 11.8058L48.6191 9.68448L46.4978 7.56316L44.3765 9.68448ZM30.7943 23.2667L28.673 21.1454L26.5516 23.2667L28.673 25.388L30.7943 23.2667ZM44.3764 36.8488L46.4977 38.9701L48.619 36.8488L46.4977 34.7275L44.3764 36.8488ZM35.5184 45.7068L33.397 47.8282L35.5184 49.9495L37.6397 47.8282L35.5184 45.7068ZM21.9362 32.1247L24.0576 30.0034L21.9362 27.8821L19.8149 30.0034L21.9362 32.1247ZM8.94429 45.1167L6.82297 47.238L8.94429 49.3593L11.0656 47.238L8.94429 45.1167ZM0.0862516 36.2586L-2.03507 34.1373L-4.15639 36.2586L-2.03507 38.3799L0.0862516 36.2586ZM13.0782 23.2667L15.1995 25.388L17.3208 23.2667L15.1995 21.1454L13.0782 23.2667ZM6.8229 -0.704701L-2.03514 8.15334L2.2075 12.396L11.0655 3.53794L6.8229 -0.704701ZM24.0576 12.2873L11.0655 -0.704702L6.8229 3.53794L19.8149 16.53L24.0576 12.2873ZM33.3971 -1.29488L19.8149 12.2873L24.0576 16.53L37.6397 2.94776L33.3971 -1.29488ZM46.4978 7.56316L37.6397 -1.29488L33.3971 2.94776L42.2551 11.8058L46.4978 7.56316ZM32.9156 25.388L46.4978 11.8058L42.2551 7.56316L28.673 21.1454L32.9156 25.388ZM46.4977 34.7275L32.9156 21.1454L28.673 25.388L42.2551 38.9701L46.4977 34.7275ZM37.6397 47.8282L46.4977 38.9701L42.2551 34.7275L33.397 43.5855L37.6397 47.8282ZM19.8149 34.246L33.397 47.8282L37.6397 43.5855L24.0576 30.0034L19.8149 34.246ZM11.0656 47.238L24.0576 34.246L19.8149 30.0034L6.82297 42.9953L11.0656 47.238ZM-2.03507 38.3799L6.82297 47.238L11.0656 42.9953L2.20757 34.1373L-2.03507 38.3799ZM10.9569 21.1454L-2.03507 34.1373L2.20757 38.3799L15.1995 25.388L10.9569 21.1454ZM-2.03514 12.396L10.9569 25.388L15.1995 21.1454L2.2075 8.15334L-2.03514 12.396Z" fill="white" mask="url(#path-1-inside-1_613_108)"/>
</svg>
