<svg width="108" height="108" viewBox="0 0 108 108" fill="none" xmlns="http://www.w3.org/2000/svg">
<path fill-rule="evenodd" clip-rule="evenodd" d="M27 0H31.5H36V9H27H9V27V36H0V31.5V27V9V4.5V0H4.5H9H27ZM99 9H81H72V0H76.5H81H99H103.5H108V4.5V9V27V31.5V36H99V27V9ZM99 99V81V72H108V76.5V81V99V103.5V108H103.5H99H81H76.5H72V99H81H99ZM36 99V108H31.5H27H9H4.5H0V103.5V99V81V76.5V72H9V81V99H27H36ZM48.6008 30.6006H59.4008V48.5992H77.4006V59.3992H59.4008V77.4006H48.6008V59.3992H30.6006V48.5992H48.6008V30.6006Z" fill="white"/>
</svg>
