<svg width="792" height="23" viewBox="0 0 792 23" fill="none" xmlns="http://www.w3.org/2000/svg">
<path fill-rule="evenodd" clip-rule="evenodd" d="M35.0001 0.128418L36.4353 1.60707L51.5001 17.1284L66.5649 1.60707L68.0001 0.128418L69.4353 1.60707L84.5001 17.1284L99.5649 1.60707L101 0.128418L102.435 1.60707L117.5 17.1284L132.565 1.60707L134 0.128418L135.435 1.60707L150.5 17.1284L165.565 1.60707L167 0.128418L168.435 1.60707L183.5 17.1284L198.565 1.60707L200 0.128418L201.435 1.60707L216.5 17.1284L231.565 1.60707L233 0.128418L234.435 1.60707L249.5 17.1284L264.565 1.60707L265 2.02942L265.435 1.60707L280.5 17.1284L295.565 1.60707L297 0.128418L298.435 1.60707L313.5 17.1284L328.565 1.60707L330 0.128418L331.435 1.60707L346.5 17.1284L361.565 1.60707L363 0.128418L364.435 1.60707L379.5 17.1284L394.565 1.60707L396 0.128418L397.435 1.60707L412.5 17.1284L427.565 1.60707L429 0.128418L430.435 1.60707L445.5 17.1284L460.565 1.60707L462 0.128418L463.435 1.60707L478.5 17.1284L493.565 1.60707L495 0.128418L496.435 1.60707L511.5 17.1284L526.565 1.60707L527 2.02945L527.435 1.60707L542.5 17.1284L557.565 1.60707L559 0.128418L560.435 1.60707L575.5 17.1284L590.565 1.60707L592 0.128418L593.435 1.60707L608.5 17.1284L623.565 1.60707L625 0.128418L626.435 1.60707L641.5 17.1284L656.565 1.60707L658 0.128418L659.435 1.60707L674.5 17.1284L689.565 1.60707L691 0.128418L692.435 1.60707L707.5 17.1284L722.565 1.60707L724 0.128418L725.435 1.60707L740.5 17.1284L755.565 1.60707L757 0.128418L758.435 1.60707L773.5 17.1284L788.565 1.60707L791.435 4.39297L774.935 21.393L773.5 22.8716L772.065 21.393L757 5.87163L741.935 21.393L740.5 22.8716L739.065 21.393L724 5.87163L708.935 21.393L707.5 22.8716L706.065 21.393L691 5.87163L675.935 21.393L674.5 22.8716L673.065 21.393L658 5.87163L642.935 21.393L641.5 22.8716L640.065 21.393L625 5.87162L609.935 21.393L608.5 22.8716L607.065 21.393L592 5.87162L576.935 21.393L575.5 22.8716L574.065 21.393L559 5.87162L543.935 21.393L542.5 22.8716L541.065 21.393L527 6.90191L512.935 21.393L511.5 22.8716L510.065 21.393L495 5.87163L479.935 21.393L478.5 22.8716L477.065 21.393L462 5.87163L446.935 21.393L445.5 22.8716L444.065 21.393L429 5.87163L413.935 21.393L412.5 22.8716L411.065 21.393L396 5.87163L380.935 21.393L379.5 22.8716L378.065 21.393L363 5.87162L347.935 21.393L346.5 22.8716L345.065 21.393L330 5.87162L314.935 21.393L313.5 22.8716L312.065 21.393L297 5.87162L281.935 21.393L280.5 22.8716L279.065 21.393L265 6.90192L250.935 21.393L249.5 22.8716L248.065 21.393L233 5.87163L217.935 21.393L216.5 22.8716L215.065 21.393L200 5.87163L184.935 21.393L183.5 22.8716L182.065 21.393L167 5.87163L151.935 21.393L150.5 22.8716L149.065 21.393L134 5.87163L118.935 21.393L117.5 22.8716L116.065 21.393L101 5.87162L85.9353 21.393L84.5001 22.8716L83.0649 21.393L68.0001 5.87162L52.9353 21.393L51.5001 22.8716L50.0649 21.393L35.0001 5.87162L19.9353 21.393L18.5001 22.8716L17.0649 21.393L0.564941 4.39297L3.43526 1.60707L18.5001 17.1284L33.5649 1.60707L35.0001 0.128418Z" fill="white"/>
</svg>
