<svg width="94" height="95" viewBox="0 0 94 95" fill="none" xmlns="http://www.w3.org/2000/svg">
<mask id="path-1-inside-1_705_9" fill="white">
<path fill-rule="evenodd" clip-rule="evenodd" d="M0.300808 20.1538L18.9145 1.54007L46.2155 28.8411L74.7559 0.300779L93.3696 18.9145L64.8292 47.4548L93.3694 75.9949L74.7556 94.6086L46.2155 66.0685L18.9147 93.3693L0.301021 74.7556L27.6018 47.4548L0.300808 20.1538Z"/>
</mask>
<path d="M18.9145 1.54007L23.1572 -2.70257L18.9145 -6.94521L14.6719 -2.70257L18.9145 1.54007ZM0.300808 20.1538L-3.94183 15.9111L-8.18447 20.1538L-3.94183 24.3964L0.300808 20.1538ZM46.2155 28.8411L41.9729 33.0837L46.2155 37.3264L50.4582 33.0837L46.2155 28.8411ZM74.7559 0.300779L78.9985 -3.94186L74.7559 -8.1845L70.5132 -3.94186L74.7559 0.300779ZM93.3696 18.9145L97.6122 23.1571L101.855 18.9145L97.6122 14.6718L93.3696 18.9145ZM64.8292 47.4548L60.5866 43.2122L56.344 47.4548L60.5866 51.6974L64.8292 47.4548ZM93.3694 75.9949L97.612 80.2375L101.855 75.9949L97.612 71.7523L93.3694 75.9949ZM74.7556 94.6086L70.513 98.8513L74.7556 103.094L78.9983 98.8513L74.7556 94.6086ZM46.2155 66.0685L50.4582 61.8259L46.2155 57.5832L41.9729 61.8259L46.2155 66.0685ZM18.9147 93.3693L14.6721 97.612L18.9147 101.855L23.1574 97.612L18.9147 93.3693ZM0.301021 74.7556L-3.94162 70.513L-8.18426 74.7556L-3.94162 78.9983L0.301021 74.7556ZM27.6018 47.4548L31.8445 51.6974L36.0871 47.4548L31.8445 43.2122L27.6018 47.4548ZM14.6719 -2.70257L-3.94183 15.9111L4.54345 24.3964L23.1572 5.78271L14.6719 -2.70257ZM50.4582 24.5985L23.1572 -2.70257L14.6719 5.78271L41.9729 33.0837L50.4582 24.5985ZM70.5132 -3.94186L41.9729 24.5985L50.4582 33.0837L78.9985 4.54342L70.5132 -3.94186ZM97.6122 14.6718L78.9985 -3.94186L70.5132 4.54342L89.1269 23.1571L97.6122 14.6718ZM69.0719 51.6974L97.6122 23.1571L89.1269 14.6718L60.5866 43.2122L69.0719 51.6974ZM97.612 71.7523L69.0719 43.2122L60.5866 51.6974L89.1267 80.2375L97.612 71.7523ZM78.9983 98.8513L97.612 80.2375L89.1267 71.7523L70.513 90.366L78.9983 98.8513ZM41.9729 70.3112L70.513 98.8513L78.9983 90.366L50.4582 61.8259L41.9729 70.3112ZM23.1574 97.612L50.4582 70.3112L41.9729 61.8259L14.6721 89.1267L23.1574 97.612ZM-3.94162 78.9983L14.6721 97.612L23.1574 89.1267L4.54366 70.513L-3.94162 78.9983ZM23.3592 43.2122L-3.94162 70.513L4.54366 78.9983L31.8445 51.6974L23.3592 43.2122ZM-3.94183 24.3964L23.3592 51.6974L31.8445 43.2122L4.54345 15.9111L-3.94183 24.3964Z" fill="white" mask="url(#path-1-inside-1_705_9)"/>
</svg>
